<svg width="20" height="15" viewBox="0 0 20 15" fill="none" xmlns="http://www.w3.org/2000/svg">
<path fill-rule="evenodd" clip-rule="evenodd" d="M2.5 0C1.83696 0 1.20107 0.263392 0.732233 0.732233C0.263392 1.20107 0 1.83696 0 2.5V7.5C0 8.16304 0.263392 8.79893 0.732233 9.26777C1.20107 9.73661 1.83696 10 2.5 10V2.5H15C15 1.83696 14.7366 1.20107 14.2678 0.732233C13.7989 0.263392 13.163 0 12.5 0H2.5ZM5 7.5C5 6.83696 5.26339 6.20107 5.73223 5.73223C6.20107 5.26339 6.83696 5 7.5 5H17.5C18.163 5 18.7989 5.26339 19.2678 5.73223C19.7366 6.20107 20 6.83696 20 7.5V12.5C20 13.163 19.7366 13.7989 19.2678 14.2678C18.7989 14.7366 18.163 15 17.5 15H7.5C6.83696 15 6.20107 14.7366 5.73223 14.2678C5.26339 13.7989 5 13.163 5 12.5V7.5ZM12.5 12.5C13.163 12.5 13.7989 12.2366 14.2678 11.7678C14.7366 11.2989 15 10.663 15 10C15 9.33696 14.7366 8.70107 14.2678 8.23223C13.7989 7.76339 13.163 7.5 12.5 7.5C11.837 7.5 11.2011 7.76339 10.7322 8.23223C10.2634 8.70107 10 9.33696 10 10C10 10.663 10.2634 11.2989 10.7322 11.7678C11.2011 12.2366 11.837 12.5 12.5 12.5Z" fill="#4CAF50"/>
</svg>
