<svg width="21" height="9" viewBox="0 0 21 9" fill="none" xmlns="http://www.w3.org/2000/svg">
<path fill-rule="evenodd" clip-rule="evenodd" d="M20.5 0.25H0.5V6.5C0.5 7.16304 0.763392 7.79893 1.23223 8.26777C1.70107 8.73661 2.33696 9 3 9H18C18.663 9 19.2989 8.73661 19.7678 8.26777C20.2366 7.79893 20.5 7.16304 20.5 6.5V0.25ZM3 5.25C3 4.91848 3.1317 4.60054 3.36612 4.36612C3.60054 4.1317 3.91848 4 4.25 4H5.5C5.83152 4 6.14946 4.1317 6.38388 4.36612C6.6183 4.60054 6.75 4.91848 6.75 5.25C6.75 5.58152 6.6183 5.89946 6.38388 6.13388C6.14946 6.3683 5.83152 6.5 5.5 6.5H4.25C3.91848 6.5 3.60054 6.3683 3.36612 6.13388C3.1317 5.89946 3 5.58152 3 5.25ZM9.25 4C8.91848 4 8.60054 4.1317 8.36612 4.36612C8.1317 4.60054 8 4.91848 8 5.25C8 5.58152 8.1317 5.89946 8.36612 6.13388C8.60054 6.3683 8.91848 6.5 9.25 6.5H10.5C10.8315 6.5 11.1495 6.3683 11.3839 6.13388C11.6183 5.89946 11.75 5.58152 11.75 5.25C11.75 4.91848 11.6183 4.60054 11.3839 4.36612C11.1495 4.1317 10.8315 4 10.5 4H9.25Z" fill="#1976D2"/>
</svg>
