<svg width="21" height="21" viewBox="0 0 21 21" fill="none" xmlns="http://www.w3.org/2000/svg">
<path fill-rule="evenodd" clip-rule="evenodd" d="M10.5 20.5C13.1522 20.5 15.6957 19.4464 17.5711 17.5711C19.4464 15.6957 20.5 13.1522 20.5 10.5C20.5 7.84784 19.4464 5.3043 17.5711 3.42893C15.6957 1.55357 13.1522 0.5 10.5 0.5C7.84784 0.5 5.3043 1.55357 3.42893 3.42893C1.55357 5.3043 0.5 7.84784 0.5 10.5C0.5 13.1522 1.55357 15.6957 3.42893 17.5711C5.3043 19.4464 7.84784 20.5 10.5 20.5ZM11.75 5.5C11.75 5.16848 11.6183 4.85054 11.3839 4.61612C11.1495 4.3817 10.8315 4.25 10.5 4.25C10.1685 4.25 9.85054 4.3817 9.61612 4.61612C9.3817 4.85054 9.25 5.16848 9.25 5.5V10.5C9.25007 10.8315 9.38181 11.1494 9.61625 11.3837L13.1513 14.92C13.2674 15.0361 13.4053 15.1283 13.557 15.1911C13.7087 15.254 13.8714 15.2863 14.0356 15.2863C14.1999 15.2863 14.3625 15.254 14.5142 15.1911C14.666 15.1283 14.8039 15.0361 14.92 14.92C15.0361 14.8039 15.1283 14.666 15.1911 14.5142C15.254 14.3625 15.2863 14.1999 15.2863 14.0356C15.2863 13.8714 15.254 13.7087 15.1911 13.557C15.1283 13.4053 15.0361 13.2674 14.92 13.1513L11.75 9.9825V5.5Z" fill="#040404"/>
</svg>
