<svg width="25" height="23" viewBox="0 0 25 23" fill="none" xmlns="http://www.w3.org/2000/svg">
<g filter="url(#filter0_d_302_1004)">
<path fill-rule="evenodd" clip-rule="evenodd" d="M7.83382 2.31882C8.63789 2.25462 9.40121 1.93836 10.0151 1.41507C10.7084 0.824558 11.5894 0.500244 12.5001 0.500244C13.4108 0.500244 14.2917 0.824558 14.9851 1.41507C15.5989 1.93836 16.3622 2.25462 17.1663 2.31882C18.0744 2.39139 18.9269 2.78502 19.571 3.42915C20.2151 4.07328 20.6087 4.92578 20.6813 5.83382C20.7451 6.63757 21.0613 7.40132 21.5851 8.01507C22.1756 8.7084 22.4999 9.58935 22.4999 10.5001C22.4999 11.4108 22.1756 12.2917 21.5851 12.9851C21.0618 13.5989 20.7455 14.3622 20.6813 15.1663C20.6087 16.0744 20.2151 16.9269 19.571 17.571C18.9269 18.2151 18.0744 18.6087 17.1663 18.6813C16.3622 18.7455 15.5989 19.0618 14.9851 19.5851C14.2917 20.1756 13.4108 20.4999 12.5001 20.4999C11.5894 20.4999 10.7084 20.1756 10.0151 19.5851C9.40121 19.0618 8.63789 18.7455 7.83382 18.6813C6.92578 18.6087 6.07328 18.2151 5.42915 17.571C4.78502 16.9269 4.39139 16.0744 4.31882 15.1663C4.25462 14.3622 3.93836 13.5989 3.41507 12.9851C2.82456 12.2917 2.50024 11.4108 2.50024 10.5001C2.50024 9.58935 2.82456 8.7084 3.41507 8.01507C3.93836 7.40121 4.25462 6.63789 4.31882 5.83382C4.39139 4.92578 4.78502 4.07328 5.42915 3.42915C6.07328 2.78502 6.92578 2.39139 7.83382 2.31882ZM17.1338 8.88382C17.3615 8.64807 17.4875 8.33231 17.4847 8.00457C17.4818 7.67682 17.3504 7.36331 17.1186 7.13155C16.8868 6.89979 16.5733 6.76832 16.2456 6.76548C15.9178 6.76263 15.6021 6.88862 15.3663 7.11632L11.2501 11.2326L9.63382 9.61632C9.39807 9.38862 9.08231 9.26263 8.75457 9.26548C8.42682 9.26832 8.11331 9.39979 7.88155 9.63155C7.64979 9.86331 7.51832 10.1768 7.51548 10.5046C7.51263 10.8323 7.63862 11.1481 7.86632 11.3838L10.3663 13.8838C10.6007 14.1182 10.9186 14.2498 11.2501 14.2498C11.5815 14.2498 11.8994 14.1182 12.1338 13.8838L17.1338 8.88382Z" fill="#F21B3F"/>
</g>
<defs>
<filter id="filter0_d_302_1004" x="-1.49976" y="0.500244" width="27.9998" height="27.9998" filterUnits="userSpaceOnUse" color-interpolation-filters="sRGB">
<feFlood flood-opacity="0" result="BackgroundImageFix"/>
<feColorMatrix in="SourceAlpha" type="matrix" values="0 0 0 0 0 0 0 0 0 0 0 0 0 0 0 0 0 0 127 0" result="hardAlpha"/>
<feOffset dy="4"/>
<feGaussianBlur stdDeviation="2"/>
<feComposite in2="hardAlpha" operator="out"/>
<feColorMatrix type="matrix" values="0 0 0 0 0 0 0 0 0 0 0 0 0 0 0 0 0 0 0.25 0"/>
<feBlend mode="normal" in2="BackgroundImageFix" result="effect1_dropShadow_302_1004"/>
<feBlend mode="normal" in="SourceGraphic" in2="effect1_dropShadow_302_1004" result="shape"/>
</filter>
</defs>
</svg>
