<svg width="21" height="21" viewBox="0 0 21 21" fill="none" xmlns="http://www.w3.org/2000/svg">
<path fill-rule="evenodd" clip-rule="evenodd" d="M5.83382 2.31882C6.63789 2.25462 7.40121 1.93836 8.01507 1.41507C8.7084 0.824558 9.58935 0.500244 10.5001 0.500244C11.4108 0.500244 12.2917 0.824558 12.9851 1.41507C13.5989 1.93836 14.3622 2.25462 15.1663 2.31882C16.0744 2.39139 16.9269 2.78502 17.571 3.42915C18.2151 4.07328 18.6087 4.92578 18.6813 5.83382C18.7451 6.63757 19.0613 7.40132 19.5851 8.01507C20.1756 8.7084 20.4999 9.58935 20.4999 10.5001C20.4999 11.4108 20.1756 12.2917 19.5851 12.9851C19.0618 13.5989 18.7455 14.3622 18.6813 15.1663C18.6087 16.0744 18.2151 16.9269 17.571 17.571C16.9269 18.2151 16.0744 18.6087 15.1663 18.6813C14.3622 18.7455 13.5989 19.0618 12.9851 19.5851C12.2917 20.1756 11.4108 20.4999 10.5001 20.4999C9.58935 20.4999 8.7084 20.1756 8.01507 19.5851C7.40121 19.0618 6.63789 18.7455 5.83382 18.6813C4.92578 18.6087 4.07328 18.2151 3.42915 17.571C2.78502 16.9269 2.39139 16.0744 2.31882 15.1663C2.25462 14.3622 1.93836 13.5989 1.41507 12.9851C0.824558 12.2917 0.500244 11.4108 0.500244 10.5001C0.500244 9.58935 0.824558 8.7084 1.41507 8.01507C1.93836 7.40121 2.25462 6.63789 2.31882 5.83382C2.39139 4.92578 2.78502 4.07328 3.42915 3.42915C4.07328 2.78502 4.92578 2.39139 5.83382 2.31882ZM15.1338 8.88382C15.3615 8.64807 15.4875 8.33231 15.4847 8.00457C15.4818 7.67682 15.3504 7.36331 15.1186 7.13155C14.8868 6.89979 14.5733 6.76832 14.2456 6.76548C13.9178 6.76263 13.6021 6.88862 13.3663 7.11632L9.25007 11.2326L7.63382 9.61632C7.39807 9.38862 7.08231 9.26263 6.75457 9.26548C6.42682 9.26832 6.11331 9.39979 5.88155 9.63155C5.64979 9.86331 5.51832 10.1768 5.51548 10.5046C5.51263 10.8323 5.63862 11.1481 5.86632 11.3838L8.36632 13.8838C8.60073 14.1182 8.91861 14.2498 9.25007 14.2498C9.58152 14.2498 9.89941 14.1182 10.1338 13.8838L15.1338 8.88382Z" fill="#4FA2F4"/>
</svg>
